# xmcd
#
# Track frame offsets:
# 150
# 25425
# 43575
# 75575
# 107850
# 131300
# 156900
# 175050
# 209700
# 234900
#
# Disc length: 3509 seconds
#
#
# Revision: 0
# Processed by: cddbd v1.5.2PL0 Copyright (c) Steve Scherf et al.
# Submitted via: FreeRIP 2.951 
#
DISCID=7e0db30a
DTITLE=Various Artist - KYR Trance Experience
DYEAR=2006
DGENRE=Trance
TTITLE0=Jose Amnesia feat. Linn "Closer-Club Vocal Mix"
TTITLE1=M.I.D.O.R. vs Linn "Breathing-trnz dub mix"
TTITLE2=Arabella "Nabucco - Mattijs Bliek remix"
TTITLE3=Karel Kattai "Arjuna"
TTITLE4=Genix "Red Vision"
TTITLE5=Scene Crashing "Strange days"
TTITLE6=Solid Trax "Devotion"
TTITLE7=Karada "Walking on the moon"
TTITLE8=Blair Bitch "Doors of perceptions"
TTITLE9=Solid Trax "Obsession"
EXTD=friendvl
EXTT0=
EXTT1=
EXTT2=
EXTT3=
EXTT4=
EXTT5=
EXTT6=
EXTT7=
EXTT8=
EXTT9=
PLAYORDER=
